<svg width="15" height="17" viewBox="0 0 10 12" fill="none" xmlns="http://www.w3.org/2000/svg">
<path d="M8 1.2C6.89714 1.2 6 2.142 6 3.3C6 4.2324 6.58571 5.0154 7.38857 5.289C7.30514 5.8482 7.076 6.309 6.68571 6.6828C5.57371 7.7466 3.52743 7.8438 2.57143 7.827V4.1022C3.39429 3.8418 4 3.048 4 2.1C4 0.942 3.10286 0 2 0C0.897143 0 0 0.942 0 2.1C0 3.048 0.605714 3.8418 1.42857 4.1022V7.8978C0.605714 8.1582 0 8.952 0 9.9C0 11.058 0.897143 12 2 12C3.10286 12 4 11.058 4 9.9C4 9.5694 3.92 9.261 3.79029 8.9826C4.96743 8.871 6.45143 8.5284 7.45257 7.5726C8.07943 6.9744 8.44171 6.2142 8.54057 5.3118C9.38 5.0628 10 4.26 10 3.3C10 2.142 9.10286 1.2 8 1.2ZM1.14286 2.1C1.14286 1.6038 1.52743 1.2 2 1.2C2.47257 1.2 2.85714 1.6038 2.85714 2.1C2.85714 2.5962 2.47257 3 2 3C1.52743 3 1.14286 2.5962 1.14286 2.1ZM2 10.8C1.52743 10.8 1.14286 10.3962 1.14286 9.9C1.14314 9.66337 1.23217 9.43638 1.39066 9.26817C1.54916 9.09995 1.76437 9.00404 1.98971 9.0012L2.064 9.0072C2.17611 9.01161 2.2863 9.03917 2.38827 9.08829C2.49024 9.13742 2.58199 9.20715 2.65829 9.29351C2.7346 9.37987 2.79395 9.48116 2.83298 9.59161C2.872 9.70205 2.88992 9.81948 2.88571 9.9372C2.88151 10.0549 2.85527 10.1706 2.80848 10.2777C2.7617 10.3847 2.69529 10.4811 2.61304 10.5612C2.53079 10.6413 2.43432 10.7037 2.32914 10.7446C2.22395 10.7856 2.11211 10.8044 2 10.8ZM8 4.2C7.52743 4.2 7.14286 3.7962 7.14286 3.3C7.14286 2.8038 7.52743 2.4 8 2.4C8.47257 2.4 8.85714 2.8038 8.85714 3.3C8.85714 3.7962 8.47257 4.2 8 4.2Z" fill="white" fill-opacity="0.31"/>
</svg>
