<svg width="17" height="18" viewBox="0 0 11 12" fill="none" xmlns="http://www.w3.org/2000/svg">
<path d="M10.2411 2.44754L6.26892 0.199508C6.03793 0.0689103 5.77436 0 5.50586 0C5.23735 0 4.97378 0.0689103 4.74279 0.199508L0.772313 2.44754C0.536154 2.58199 0.340754 2.77279 0.205341 3.00116C0.0699274 3.22952 -0.000833477 3.48759 2.07112e-05 3.74996V8.24924C-0.00138143 8.51086 0.0684325 8.76835 0.202631 8.99651C0.336829 9.22467 0.530815 9.41568 0.765605 9.55086L4.73692 11.8005C4.96791 11.9311 5.23148 12 5.49999 12C5.76849 12 6.03206 11.9311 6.26305 11.8005L10.2344 9.55086C10.4692 9.41574 10.6632 9.22474 10.7974 8.99657C10.9317 8.7684 11.0014 8.51088 10.9999 8.24924V3.74996C11.0021 3.48903 10.9335 3.232 10.8006 3.0039C10.6678 2.7758 10.4753 2.5844 10.2419 2.44834L10.2411 2.44754ZM7.16448 9.47245V9.79566C7.16415 9.81555 7.15861 9.83506 7.14836 9.85238C7.1381 9.86971 7.12347 9.88431 7.10578 9.89486L6.90537 10.0045C6.87351 10.0205 6.84668 10.0045 6.84668 9.96206V9.64526C6.70472 9.71162 6.54237 9.72668 6.38967 9.68766C6.37762 9.68012 6.36874 9.66877 6.3646 9.65559C6.36045 9.64242 6.36132 9.62828 6.36703 9.61566L6.43915 9.32365C6.44317 9.3077 6.45051 9.29268 6.46074 9.27948C6.47097 9.26629 6.48387 9.25519 6.49868 9.24685C6.50371 9.24478 6.50914 9.24371 6.51462 9.24371C6.52009 9.24371 6.52552 9.24478 6.53055 9.24685C6.67102 9.28278 6.82067 9.26469 6.9473 9.19645C7.03702 9.15448 7.1132 9.09019 7.16781 9.01035C7.22241 8.93051 7.25342 8.83809 7.25756 8.74284C7.25756 8.57804 7.16364 8.50924 6.93556 8.50844C6.6471 8.50844 6.38129 8.45564 6.37374 8.04923C6.37712 7.87562 6.42075 7.70488 6.50151 7.54927C6.58227 7.39365 6.69814 7.25703 6.84081 7.14922V6.82361C6.84069 6.80342 6.84603 6.78353 6.85632 6.76588C6.8666 6.74822 6.88147 6.73339 6.8995 6.72281L7.0932 6.60521C7.12507 6.58921 7.1519 6.60521 7.1519 6.64841V6.97562C7.27072 6.92387 7.40342 6.9085 7.53176 6.93161C7.54526 6.93889 7.55537 6.95078 7.56004 6.96488C7.56471 6.97899 7.56359 6.99426 7.55692 7.00762L7.48899 7.29722C7.48069 7.32679 7.4613 7.35241 7.43449 7.36922C7.42497 7.37227 7.41466 7.37227 7.40514 7.36922C7.28003 7.34335 7.14929 7.36395 7.03954 7.42682C6.95939 7.45985 6.89074 7.51394 6.8416 7.58278C6.79246 7.65163 6.76484 7.73238 6.76198 7.81563C6.76198 7.96363 6.84416 8.00923 7.11836 8.01403C7.48564 8.01403 7.64412 8.17323 7.64832 8.52524C7.64472 8.70723 7.59966 8.88629 7.51625 9.05C7.43285 9.2137 7.3131 9.35813 7.16532 9.47325L7.16448 9.47245ZM9.24489 8.92845C9.24751 8.94218 9.24608 8.95634 9.24075 8.96933C9.23542 8.98233 9.2264 8.99366 9.2147 9.00205L8.21014 9.58366C8.20553 9.5874 8.19981 9.58965 8.19378 9.59008C8.18775 9.59051 8.18173 9.5891 8.17659 9.58606C8.17143 9.58304 8.16737 9.57858 8.16497 9.57328C8.16257 9.56798 8.16194 9.56211 8.16318 9.55646V9.30845C8.16387 9.29515 8.1686 9.28232 8.17678 9.27152C8.18497 9.26073 8.19627 9.25244 8.2093 9.24765L9.19793 8.68284C9.20268 8.67922 9.20849 8.6771 9.21456 8.67676C9.22063 8.67643 9.22665 8.6779 9.23181 8.68097C9.23696 8.68405 9.24099 8.68857 9.24333 8.69392C9.24568 8.69927 9.24622 8.70518 9.24489 8.71084V8.92925V8.92845ZM9.93836 3.39716L6.18004 5.61159C5.7113 5.8764 5.36666 6.166 5.36666 6.70521V11.1213C5.36666 11.4445 5.50502 11.6509 5.71297 11.7141C5.64438 11.7264 5.5748 11.7331 5.50502 11.7341C5.28364 11.7341 5.0673 11.6765 4.87779 11.5685L0.905641 9.31965C0.71294 9.20814 0.553754 9.05096 0.443553 8.8634C0.333353 8.67583 0.275886 8.46426 0.276738 8.24924V3.74996C0.275596 3.53467 0.332925 3.32277 0.443139 3.1349C0.553354 2.94703 0.712696 2.7896 0.905641 2.67795L4.87863 0.429912C5.0676 0.323036 5.28324 0.26664 5.50292 0.26664C5.7226 0.26664 5.93824 0.323036 6.12721 0.429912L10.0985 2.67955C10.2603 2.77286 10.3987 2.89873 10.5041 3.04839C10.6096 3.19804 10.6795 3.36785 10.709 3.54596C10.5798 3.27876 10.283 3.20436 9.93752 3.39796H9.9392L9.93836 3.39716Z" fill="white"/>
</svg>
