<svg width="17" height="17" viewBox="0 0 17 17" fill="none" xmlns="http://www.w3.org/2000/svg">
<path d="M0 3.64286C0 2.67671 0.3838 1.75014 1.06697 1.06697C1.75014 0.3838 2.67671 0 3.64286 0H13.3571C14.3233 0 15.2499 0.3838 15.933 1.06697C16.6162 1.75014 17 2.67671 17 3.64286V13.3571C17 14.3233 16.6162 15.2499 15.933 15.933C15.2499 16.6162 14.3233 17 13.3571 17H3.64286C2.67671 17 1.75014 16.6162 1.06697 15.933C0.3838 15.2499 0 14.3233 0 13.3571V3.64286ZM1.21429 4.85714V13.3571C1.21429 14.0012 1.47015 14.619 1.9256 15.0744C2.38104 15.5298 2.99876 15.7857 3.64286 15.7857H13.3571C14.0012 15.7857 14.619 15.5298 15.0744 15.0744C15.5298 14.619 15.7857 14.0012 15.7857 13.3571V4.85714H1.21429Z" fill="white"/>
</svg>
